<?xml version="1.0" encoding="UTF-8" standalone="no"?>
<!-- Created with Inkscape (http://www.inkscape.org/) -->

<svg
   width="128"
   height="128"
   viewBox="0 0 33.866666 33.866666"
   version="1.1"
   id="svg5"
   inkscape:version="1.1.1 (c3084ef, 2021-09-22)"
   sodipodi:docname="drawing.svg"
   xmlns:inkscape="http://www.inkscape.org/namespaces/inkscape"
   xmlns:sodipodi="http://sodipodi.sourceforge.net/DTD/sodipodi-0.dtd"
   xmlns="http://www.w3.org/2000/svg"
   xmlns:svg="http://www.w3.org/2000/svg">
  <sodipodi:namedview
     id="namedview7"
     pagecolor="#ffffff"
     bordercolor="#999999"
     borderopacity="1"
     inkscape:pageshadow="0"
     inkscape:pageopacity="0"
     inkscape:pagecheckerboard="0"
     inkscape:document-units="px"
     showgrid="false"
     units="px"
     inkscape:zoom="3.5826237"
     inkscape:cx="38.379693"
     inkscape:cy="61.965759"
     inkscape:window-width="1660"
     inkscape:window-height="942"
     inkscape:window-x="10"
     inkscape:window-y="60"
     inkscape:window-maximized="0"
     inkscape:current-layer="layer1" />
  <defs
     id="defs2" />
  <g
     inkscape:label="Layer 1"
     inkscape:groupmode="layer"
     id="layer1">
    <ellipse
       style="fill:none;stroke:#847577;stroke-width:0.372173;stroke-opacity:1"
       id="path870-5"
       cx="16.933334"
       cy="16.933332"
       rx="16.747248"
       ry="16.747246" />
    <path
       style="fill:#3a3738;fill-opacity:1;stroke:none;stroke-width:0.0585007;stroke-opacity:1"
       d="m 5.1732129,28.564437 c -0.051998,-0.052 -0.086785,-0.115678 -0.077305,-0.141515 0.00948,-0.02585 0.5194273,-0.60852 1.1332157,-1.294852 4.8367164,-5.40838 8.6932094,-10.291113 11.7254594,-14.845686 1.699532,-2.552772 2.690436,-4.1976549 4.282372,-7.1086554 0.546318,-0.9989934 1.04711,-1.9084906 1.11287,-2.0211047 0.305224,-0.5226971 0.708674,-1.1115154 0.761595,-1.1115154 0.120438,0 1.209577,0.6241624 1.900547,1.0891629 1.187622,0.7992324 2.091209,1.5791245 3.066167,2.6464333 l 0.564665,0.61815 -0.116141,0.2947863 c -1.530787,3.885419 -8.462976,10.503163 -19.470194,18.587026 -1.6639365,1.222018 -4.7014174,3.382311 -4.7557017,3.382311 -0.018156,0 -0.075552,-0.04254 -0.1275498,-0.09454 z"
       id="path2658" />
    <path
       style="fill:#3a3738;fill-opacity:1;stroke:none;stroke-width:0.120693;stroke-opacity:1"
       d="M 18.137189,106.45142 C 9.822744,97.587308 4.2111916,86.039714 2.2408217,73.739476 1.6741106,70.201722 1.5766151,68.80208 1.5727351,64.148445 1.5688036,59.433017 1.6495507,58.186533 2.1864874,54.674028 5.2324601,34.748031 17.475038,17.687136 35.363113,8.4400616 51.659404,0.01584497 70.855838,-0.7991168 87.866603,6.2110884 c 0.910068,0.3750424 3.397105,1.4921827 3.541837,1.5909401 0.02402,0.01639 -0.144577,0.2636034 -0.374662,0.549362 -1.157529,1.437616 -2.076882,2.9926565 -6.15827,10.4164045 C 77.737405,31.751484 73.996092,37.945557 67.233585,47.975554 55.81439,64.912243 43.091209,80.993642 24.576087,101.89228 c -2.63032,2.96893 -4.836711,5.54875 -4.903092,5.73293 l -0.120694,0.33487 z"
       id="path3295"
       transform="scale(0.26458333)" />
    <path
       style="fill:none;stroke:#000000;stroke-width:0.264583px;stroke-linecap:butt;stroke-linejoin:miter;stroke-opacity:1"
       d="M 5.1732129,28.564437 5.6175901,27.967403"
       id="path3369" />
  </g>
</svg>
